<mxfile host="app.diagrams.net" modified="2021-02-23T05:51:17.091Z" agent="5.0 (Windows NT 6.1; WOW64) AppleWebKit/537.36 (KHTML, like Gecko) Chrome/78.0.3904.108 Safari/537.36" etag="-britNhgy90mMAXQyLX3" version="14.2.9" type="github" pages="2">
  <diagram id="ZRZctjsknc8e8Y7eD8WB" name="Eureka">
    <mxGraphModel dx="1374" dy="763" grid="1" gridSize="10" guides="1" tooltips="1" connect="1" arrows="1" fold="1" page="1" pageScale="1" pageWidth="827" pageHeight="1169" math="0" shadow="0">
      <root>
        <mxCell id="0" />
        <mxCell id="1" parent="0" />
        <mxCell id="ys1kdwdnNZaFBrmjLRdG-1" value="Eureka&lt;br&gt;服务注册&lt;br&gt;心跳与故障" style="rounded=1;whiteSpace=wrap;html=1;verticalAlign=top;" parent="1" vertex="1">
          <mxGeometry x="414" y="140" width="520" height="300" as="geometry" />
        </mxCell>
        <mxCell id="ys1kdwdnNZaFBrmjLRdG-20" style="edgeStyle=orthogonalEdgeStyle;rounded=0;orthogonalLoop=1;jettySize=auto;html=1;entryX=0.5;entryY=1;entryDx=0;entryDy=0;" parent="1" source="ys1kdwdnNZaFBrmjLRdG-2" target="ys1kdwdnNZaFBrmjLRdG-6" edge="1">
          <mxGeometry relative="1" as="geometry">
            <Array as="points">
              <mxPoint x="185" y="530" />
              <mxPoint x="1125" y="530" />
            </Array>
          </mxGeometry>
        </mxCell>
        <mxCell id="ys1kdwdnNZaFBrmjLRdG-21" value="远程调用" style="edgeLabel;html=1;align=center;verticalAlign=middle;resizable=0;points=[];" parent="ys1kdwdnNZaFBrmjLRdG-20" vertex="1" connectable="0">
          <mxGeometry x="-0.1027" y="-2" relative="1" as="geometry">
            <mxPoint as="offset" />
          </mxGeometry>
        </mxCell>
        <mxCell id="ys1kdwdnNZaFBrmjLRdG-2" value="消费者&lt;br&gt;&lt;br&gt;服务注册列表&lt;br&gt;192.168.1.10:8080" style="rounded=0;whiteSpace=wrap;html=1;" parent="1" vertex="1">
          <mxGeometry x="120" y="210" width="150" height="70" as="geometry" />
        </mxCell>
        <mxCell id="b5hkTW-SGXUPkr9r3Btj-2" style="edgeStyle=orthogonalEdgeStyle;rounded=0;orthogonalLoop=1;jettySize=auto;html=1;exitX=0.5;exitY=1;exitDx=0;exitDy=0;entryX=1;entryY=0.5;entryDx=0;entryDy=0;" edge="1" parent="1" source="ys1kdwdnNZaFBrmjLRdG-4" target="ys1kdwdnNZaFBrmjLRdG-11">
          <mxGeometry relative="1" as="geometry" />
        </mxCell>
        <mxCell id="ys1kdwdnNZaFBrmjLRdG-4" value="服务注册列表&lt;br&gt;192.168.1.10:8080&lt;br&gt;192.168.1.11:8080" style="rounded=0;whiteSpace=wrap;html=1;" parent="1" vertex="1">
          <mxGeometry x="770" y="230" width="140" height="60" as="geometry" />
        </mxCell>
        <mxCell id="ys1kdwdnNZaFBrmjLRdG-7" style="edgeStyle=orthogonalEdgeStyle;rounded=0;orthogonalLoop=1;jettySize=auto;html=1;entryX=1;entryY=0.25;entryDx=0;entryDy=0;" parent="1" source="ys1kdwdnNZaFBrmjLRdG-5" target="ys1kdwdnNZaFBrmjLRdG-4" edge="1">
          <mxGeometry relative="1" as="geometry" />
        </mxCell>
        <mxCell id="ys1kdwdnNZaFBrmjLRdG-10" value="服务注册" style="edgeLabel;html=1;align=center;verticalAlign=middle;resizable=0;points=[];" parent="ys1kdwdnNZaFBrmjLRdG-7" vertex="1" connectable="0">
          <mxGeometry x="-0.3789" y="5" relative="1" as="geometry">
            <mxPoint as="offset" />
          </mxGeometry>
        </mxCell>
        <mxCell id="ys1kdwdnNZaFBrmjLRdG-25" style="edgeStyle=orthogonalEdgeStyle;rounded=0;orthogonalLoop=1;jettySize=auto;html=1;entryX=1;entryY=0.5;entryDx=0;entryDy=0;" parent="1" source="ys1kdwdnNZaFBrmjLRdG-5" target="ys1kdwdnNZaFBrmjLRdG-4" edge="1">
          <mxGeometry relative="1" as="geometry">
            <Array as="points">
              <mxPoint x="1125" y="260" />
            </Array>
          </mxGeometry>
        </mxCell>
        <mxCell id="ys1kdwdnNZaFBrmjLRdG-5" value="服务提供者&lt;br&gt;192.168.1.11:8080" style="rounded=0;whiteSpace=wrap;html=1;" parent="1" vertex="1">
          <mxGeometry x="1050" y="160" width="150" height="70" as="geometry" />
        </mxCell>
        <mxCell id="ys1kdwdnNZaFBrmjLRdG-8" style="edgeStyle=orthogonalEdgeStyle;rounded=0;orthogonalLoop=1;jettySize=auto;html=1;exitX=0;exitY=0.5;exitDx=0;exitDy=0;entryX=1;entryY=0.75;entryDx=0;entryDy=0;" parent="1" source="ys1kdwdnNZaFBrmjLRdG-6" target="ys1kdwdnNZaFBrmjLRdG-4" edge="1">
          <mxGeometry relative="1" as="geometry">
            <mxPoint x="950" y="280" as="targetPoint" />
          </mxGeometry>
        </mxCell>
        <mxCell id="ys1kdwdnNZaFBrmjLRdG-9" value="服务注册" style="edgeLabel;html=1;align=center;verticalAlign=middle;resizable=0;points=[];" parent="ys1kdwdnNZaFBrmjLRdG-8" vertex="1" connectable="0">
          <mxGeometry x="-0.3833" y="-23" relative="1" as="geometry">
            <mxPoint x="-2" y="-22" as="offset" />
          </mxGeometry>
        </mxCell>
        <mxCell id="ys1kdwdnNZaFBrmjLRdG-26" style="edgeStyle=orthogonalEdgeStyle;rounded=0;orthogonalLoop=1;jettySize=auto;html=1;entryX=1;entryY=0.5;entryDx=0;entryDy=0;" parent="1" source="ys1kdwdnNZaFBrmjLRdG-6" target="ys1kdwdnNZaFBrmjLRdG-4" edge="1">
          <mxGeometry relative="1" as="geometry">
            <Array as="points">
              <mxPoint x="1125" y="260" />
            </Array>
          </mxGeometry>
        </mxCell>
        <mxCell id="ys1kdwdnNZaFBrmjLRdG-27" value="定时发送心跳，30S" style="edgeLabel;html=1;align=center;verticalAlign=middle;resizable=0;points=[];" parent="ys1kdwdnNZaFBrmjLRdG-26" vertex="1" connectable="0">
          <mxGeometry x="-0.0327" y="-1" relative="1" as="geometry">
            <mxPoint as="offset" />
          </mxGeometry>
        </mxCell>
        <mxCell id="ys1kdwdnNZaFBrmjLRdG-6" value="服务提供者&lt;br&gt;192.168.1.10:8080" style="rounded=0;whiteSpace=wrap;html=1;" parent="1" vertex="1">
          <mxGeometry x="1050" y="320" width="150" height="70" as="geometry" />
        </mxCell>
        <mxCell id="ys1kdwdnNZaFBrmjLRdG-14" style="edgeStyle=orthogonalEdgeStyle;rounded=0;orthogonalLoop=1;jettySize=auto;html=1;entryX=1;entryY=0.5;entryDx=0;entryDy=0;" parent="1" source="ys1kdwdnNZaFBrmjLRdG-11" target="ys1kdwdnNZaFBrmjLRdG-12" edge="1">
          <mxGeometry relative="1" as="geometry" />
        </mxCell>
        <mxCell id="ys1kdwdnNZaFBrmjLRdG-11" value="读写缓存&lt;br&gt;&lt;br&gt;服务注册列表&lt;br&gt;192.168.1.10:8080&lt;br&gt;192.168.1.11:8080" style="rounded=0;whiteSpace=wrap;html=1;" parent="1" vertex="1">
          <mxGeometry x="614" y="310" width="120" height="75" as="geometry" />
        </mxCell>
        <mxCell id="ys1kdwdnNZaFBrmjLRdG-15" style="edgeStyle=orthogonalEdgeStyle;rounded=0;orthogonalLoop=1;jettySize=auto;html=1;exitX=0;exitY=0.5;exitDx=0;exitDy=0;" parent="1" source="ys1kdwdnNZaFBrmjLRdG-12" edge="1">
          <mxGeometry relative="1" as="geometry">
            <mxPoint x="270" y="243" as="targetPoint" />
            <Array as="points">
              <mxPoint x="520" y="243" />
              <mxPoint x="270" y="243" />
            </Array>
          </mxGeometry>
        </mxCell>
        <mxCell id="ys1kdwdnNZaFBrmjLRdG-16" value="服务发现" style="edgeLabel;html=1;align=center;verticalAlign=middle;resizable=0;points=[];" parent="ys1kdwdnNZaFBrmjLRdG-15" vertex="1" connectable="0">
          <mxGeometry x="0.2644" y="1" relative="1" as="geometry">
            <mxPoint x="1" as="offset" />
          </mxGeometry>
        </mxCell>
        <mxCell id="ys1kdwdnNZaFBrmjLRdG-12" value="读缓存&lt;br&gt;服务注册列表&lt;br&gt;192.168.1.10:8080" style="rounded=0;whiteSpace=wrap;html=1;" parent="1" vertex="1">
          <mxGeometry x="520" y="210" width="120" height="60" as="geometry" />
        </mxCell>
        <mxCell id="ys1kdwdnNZaFBrmjLRdG-18" style="edgeStyle=orthogonalEdgeStyle;rounded=0;orthogonalLoop=1;jettySize=auto;html=1;exitX=1;exitY=0.5;exitDx=0;exitDy=0;entryX=0.5;entryY=1;entryDx=0;entryDy=0;" parent="1" source="ys1kdwdnNZaFBrmjLRdG-17" target="ys1kdwdnNZaFBrmjLRdG-11" edge="1">
          <mxGeometry relative="1" as="geometry" />
        </mxCell>
        <mxCell id="ys1kdwdnNZaFBrmjLRdG-19" value="定时同步两个缓存" style="edgeLabel;html=1;align=center;verticalAlign=middle;resizable=0;points=[];" parent="ys1kdwdnNZaFBrmjLRdG-18" vertex="1" connectable="0">
          <mxGeometry x="-0.3408" y="1" relative="1" as="geometry">
            <mxPoint as="offset" />
          </mxGeometry>
        </mxCell>
        <mxCell id="ys1kdwdnNZaFBrmjLRdG-17" value="线程" style="ellipse;whiteSpace=wrap;html=1;aspect=fixed;fillColor=#e1d5e7;strokeColor=#9673a6;" parent="1" vertex="1">
          <mxGeometry x="460" y="380" width="60" height="60" as="geometry" />
        </mxCell>
        <mxCell id="ys1kdwdnNZaFBrmjLRdG-23" style="edgeStyle=orthogonalEdgeStyle;rounded=0;orthogonalLoop=1;jettySize=auto;html=1;entryX=0.143;entryY=0;entryDx=0;entryDy=0;entryPerimeter=0;" parent="1" source="ys1kdwdnNZaFBrmjLRdG-22" target="ys1kdwdnNZaFBrmjLRdG-4" edge="1">
          <mxGeometry relative="1" as="geometry">
            <Array as="points">
              <mxPoint x="790" y="170" />
            </Array>
          </mxGeometry>
        </mxCell>
        <mxCell id="ys1kdwdnNZaFBrmjLRdG-24" value="定时检查心跳" style="edgeLabel;html=1;align=center;verticalAlign=middle;resizable=0;points=[];" parent="ys1kdwdnNZaFBrmjLRdG-23" vertex="1" connectable="0">
          <mxGeometry x="-0.0909" y="3" relative="1" as="geometry">
            <mxPoint x="-4" y="3" as="offset" />
          </mxGeometry>
        </mxCell>
        <mxCell id="ys1kdwdnNZaFBrmjLRdG-22" value="线程" style="ellipse;whiteSpace=wrap;html=1;aspect=fixed;fillColor=#e1d5e7;strokeColor=#9673a6;" parent="1" vertex="1">
          <mxGeometry x="840" y="140" width="60" height="60" as="geometry" />
        </mxCell>
      </root>
    </mxGraphModel>
  </diagram>
  <diagram id="Etd2HJ25BD4lDlKypGjl" name="生产部署图">
    <mxGraphModel dx="1422" dy="720" grid="1" gridSize="10" guides="1" tooltips="1" connect="1" arrows="1" fold="1" page="1" pageScale="1" pageWidth="827" pageHeight="1169" math="0" shadow="0">
      <root>
        <mxCell id="NqYlhsiGbe7XxsHwuH4E-0" />
        <mxCell id="NqYlhsiGbe7XxsHwuH4E-1" parent="NqYlhsiGbe7XxsHwuH4E-0" />
        <mxCell id="NqYlhsiGbe7XxsHwuH4E-26" style="edgeStyle=orthogonalEdgeStyle;rounded=0;orthogonalLoop=1;jettySize=auto;html=1;entryX=0.5;entryY=0;entryDx=0;entryDy=0;" edge="1" parent="NqYlhsiGbe7XxsHwuH4E-1" source="NqYlhsiGbe7XxsHwuH4E-2" target="NqYlhsiGbe7XxsHwuH4E-6">
          <mxGeometry relative="1" as="geometry">
            <Array as="points">
              <mxPoint x="154" y="390" />
              <mxPoint x="740" y="390" />
            </Array>
          </mxGeometry>
        </mxCell>
        <mxCell id="NqYlhsiGbe7XxsHwuH4E-2" value="服务A&lt;br&gt;4核8G" style="rounded=1;whiteSpace=wrap;html=1;fillColor=#d5e8d4;strokeColor=#82b366;" vertex="1" parent="NqYlhsiGbe7XxsHwuH4E-1">
          <mxGeometry x="94" y="410" width="120" height="40" as="geometry" />
        </mxCell>
        <mxCell id="NqYlhsiGbe7XxsHwuH4E-25" style="edgeStyle=orthogonalEdgeStyle;rounded=0;orthogonalLoop=1;jettySize=auto;html=1;entryX=0;entryY=0.5;entryDx=0;entryDy=0;" edge="1" parent="NqYlhsiGbe7XxsHwuH4E-1" source="NqYlhsiGbe7XxsHwuH4E-4" target="NqYlhsiGbe7XxsHwuH4E-6">
          <mxGeometry relative="1" as="geometry">
            <Array as="points" />
          </mxGeometry>
        </mxCell>
        <mxCell id="NqYlhsiGbe7XxsHwuH4E-4" value="服务A&lt;br&gt;4核8G" style="rounded=1;whiteSpace=wrap;html=1;fillColor=#d5e8d4;strokeColor=#82b366;" vertex="1" parent="NqYlhsiGbe7XxsHwuH4E-1">
          <mxGeometry x="294" y="410" width="120" height="40" as="geometry" />
        </mxCell>
        <mxCell id="NqYlhsiGbe7XxsHwuH4E-6" value="注册中心&lt;br&gt;4核8G" style="rounded=1;whiteSpace=wrap;html=1;fillColor=#ffe6cc;strokeColor=#d79b00;" vertex="1" parent="NqYlhsiGbe7XxsHwuH4E-1">
          <mxGeometry x="680" y="410" width="120" height="40" as="geometry" />
        </mxCell>
        <mxCell id="NqYlhsiGbe7XxsHwuH4E-7" value="注册中心&lt;br&gt;4核8G" style="rounded=1;whiteSpace=wrap;html=1;fillColor=#ffe6cc;strokeColor=#d79b00;" vertex="1" parent="NqYlhsiGbe7XxsHwuH4E-1">
          <mxGeometry x="680" y="500" width="120" height="40" as="geometry" />
        </mxCell>
        <mxCell id="NqYlhsiGbe7XxsHwuH4E-8" value="网关系统&lt;br&gt;4核8G" style="rounded=1;whiteSpace=wrap;html=1;fillColor=#dae8fc;strokeColor=#6c8ebf;" vertex="1" parent="NqYlhsiGbe7XxsHwuH4E-1">
          <mxGeometry x="80" y="300" width="120" height="40" as="geometry" />
        </mxCell>
        <mxCell id="NqYlhsiGbe7XxsHwuH4E-9" value="网关系统&lt;br&gt;4核8G" style="rounded=1;whiteSpace=wrap;html=1;fillColor=#dae8fc;strokeColor=#6c8ebf;" vertex="1" parent="NqYlhsiGbe7XxsHwuH4E-1">
          <mxGeometry x="280" y="300" width="120" height="40" as="geometry" />
        </mxCell>
        <mxCell id="NqYlhsiGbe7XxsHwuH4E-10" value="网关系统&lt;br&gt;4核8G" style="rounded=1;whiteSpace=wrap;html=1;fillColor=#dae8fc;strokeColor=#6c8ebf;" vertex="1" parent="NqYlhsiGbe7XxsHwuH4E-1">
          <mxGeometry x="470" y="300" width="120" height="40" as="geometry" />
        </mxCell>
        <mxCell id="NqYlhsiGbe7XxsHwuH4E-11" value="网关系统&lt;br&gt;4核8G" style="rounded=1;whiteSpace=wrap;html=1;fillColor=#dae8fc;strokeColor=#6c8ebf;" vertex="1" parent="NqYlhsiGbe7XxsHwuH4E-1">
          <mxGeometry x="670" y="300" width="120" height="40" as="geometry" />
        </mxCell>
        <mxCell id="NqYlhsiGbe7XxsHwuH4E-17" style="edgeStyle=orthogonalEdgeStyle;rounded=0;orthogonalLoop=1;jettySize=auto;html=1;" edge="1" parent="NqYlhsiGbe7XxsHwuH4E-1" source="NqYlhsiGbe7XxsHwuH4E-12" target="NqYlhsiGbe7XxsHwuH4E-8">
          <mxGeometry relative="1" as="geometry">
            <Array as="points">
              <mxPoint x="360" y="260" />
              <mxPoint x="140" y="260" />
            </Array>
          </mxGeometry>
        </mxCell>
        <mxCell id="NqYlhsiGbe7XxsHwuH4E-19" style="edgeStyle=orthogonalEdgeStyle;rounded=0;orthogonalLoop=1;jettySize=auto;html=1;exitX=0.25;exitY=1;exitDx=0;exitDy=0;" edge="1" parent="NqYlhsiGbe7XxsHwuH4E-1" source="NqYlhsiGbe7XxsHwuH4E-12">
          <mxGeometry relative="1" as="geometry">
            <mxPoint x="360" y="300" as="targetPoint" />
            <Array as="points">
              <mxPoint x="360" y="220" />
              <mxPoint x="360" y="300" />
            </Array>
          </mxGeometry>
        </mxCell>
        <mxCell id="NqYlhsiGbe7XxsHwuH4E-20" style="edgeStyle=orthogonalEdgeStyle;rounded=0;orthogonalLoop=1;jettySize=auto;html=1;entryX=0.5;entryY=0;entryDx=0;entryDy=0;exitX=0.5;exitY=1;exitDx=0;exitDy=0;" edge="1" parent="NqYlhsiGbe7XxsHwuH4E-1" source="NqYlhsiGbe7XxsHwuH4E-12" target="NqYlhsiGbe7XxsHwuH4E-10">
          <mxGeometry relative="1" as="geometry" />
        </mxCell>
        <mxCell id="NqYlhsiGbe7XxsHwuH4E-21" style="edgeStyle=orthogonalEdgeStyle;rounded=0;orthogonalLoop=1;jettySize=auto;html=1;exitX=0.75;exitY=1;exitDx=0;exitDy=0;entryX=0.5;entryY=0;entryDx=0;entryDy=0;" edge="1" parent="NqYlhsiGbe7XxsHwuH4E-1" source="NqYlhsiGbe7XxsHwuH4E-12" target="NqYlhsiGbe7XxsHwuH4E-11">
          <mxGeometry relative="1" as="geometry">
            <Array as="points">
              <mxPoint x="360" y="220" />
              <mxPoint x="360" y="260" />
              <mxPoint x="730" y="260" />
            </Array>
          </mxGeometry>
        </mxCell>
        <mxCell id="NqYlhsiGbe7XxsHwuH4E-12" value="Nginx" style="rounded=1;whiteSpace=wrap;html=1;fillColor=#fff2cc;strokeColor=#d6b656;" vertex="1" parent="NqYlhsiGbe7XxsHwuH4E-1">
          <mxGeometry x="300" y="180" width="120" height="40" as="geometry" />
        </mxCell>
        <mxCell id="NqYlhsiGbe7XxsHwuH4E-22" style="edgeStyle=orthogonalEdgeStyle;rounded=0;orthogonalLoop=1;jettySize=auto;html=1;" edge="1" parent="NqYlhsiGbe7XxsHwuH4E-1" source="NqYlhsiGbe7XxsHwuH4E-13">
          <mxGeometry relative="1" as="geometry">
            <mxPoint x="530" y="300" as="targetPoint" />
          </mxGeometry>
        </mxCell>
        <mxCell id="NqYlhsiGbe7XxsHwuH4E-13" value="Nginx" style="rounded=1;whiteSpace=wrap;html=1;fillColor=#fff2cc;strokeColor=#d6b656;" vertex="1" parent="NqYlhsiGbe7XxsHwuH4E-1">
          <mxGeometry x="470" y="180" width="120" height="40" as="geometry" />
        </mxCell>
        <mxCell id="NqYlhsiGbe7XxsHwuH4E-15" style="edgeStyle=orthogonalEdgeStyle;rounded=0;orthogonalLoop=1;jettySize=auto;html=1;exitX=0.25;exitY=1;exitDx=0;exitDy=0;entryX=0.567;entryY=0.025;entryDx=0;entryDy=0;entryPerimeter=0;" edge="1" parent="NqYlhsiGbe7XxsHwuH4E-1" source="NqYlhsiGbe7XxsHwuH4E-14" target="NqYlhsiGbe7XxsHwuH4E-12">
          <mxGeometry relative="1" as="geometry" />
        </mxCell>
        <mxCell id="NqYlhsiGbe7XxsHwuH4E-16" style="edgeStyle=orthogonalEdgeStyle;rounded=0;orthogonalLoop=1;jettySize=auto;html=1;exitX=0.75;exitY=1;exitDx=0;exitDy=0;entryX=0.5;entryY=0;entryDx=0;entryDy=0;" edge="1" parent="NqYlhsiGbe7XxsHwuH4E-1" source="NqYlhsiGbe7XxsHwuH4E-14" target="NqYlhsiGbe7XxsHwuH4E-13">
          <mxGeometry relative="1" as="geometry" />
        </mxCell>
        <mxCell id="NqYlhsiGbe7XxsHwuH4E-14" value="LVS" style="rounded=1;whiteSpace=wrap;html=1;fillColor=#e1d5e7;strokeColor=#9673a6;" vertex="1" parent="NqYlhsiGbe7XxsHwuH4E-1">
          <mxGeometry x="390" y="90" width="120" height="40" as="geometry" />
        </mxCell>
        <mxCell id="NqYlhsiGbe7XxsHwuH4E-27" style="edgeStyle=orthogonalEdgeStyle;rounded=0;orthogonalLoop=1;jettySize=auto;html=1;entryX=0.5;entryY=1;entryDx=0;entryDy=0;" edge="1" parent="NqYlhsiGbe7XxsHwuH4E-1" source="NqYlhsiGbe7XxsHwuH4E-23" target="NqYlhsiGbe7XxsHwuH4E-7">
          <mxGeometry relative="1" as="geometry">
            <Array as="points">
              <mxPoint x="154" y="570" />
              <mxPoint x="740" y="570" />
            </Array>
          </mxGeometry>
        </mxCell>
        <mxCell id="NqYlhsiGbe7XxsHwuH4E-23" value="服务B&lt;br&gt;4核8G" style="rounded=1;whiteSpace=wrap;html=1;fillColor=#d5e8d4;strokeColor=#82b366;" vertex="1" parent="NqYlhsiGbe7XxsHwuH4E-1">
          <mxGeometry x="94" y="500" width="120" height="40" as="geometry" />
        </mxCell>
        <mxCell id="NqYlhsiGbe7XxsHwuH4E-28" style="edgeStyle=orthogonalEdgeStyle;rounded=0;orthogonalLoop=1;jettySize=auto;html=1;" edge="1" parent="NqYlhsiGbe7XxsHwuH4E-1" source="NqYlhsiGbe7XxsHwuH4E-24" target="NqYlhsiGbe7XxsHwuH4E-7">
          <mxGeometry relative="1" as="geometry" />
        </mxCell>
        <mxCell id="NqYlhsiGbe7XxsHwuH4E-24" value="服务B&lt;br&gt;4核8G" style="rounded=1;whiteSpace=wrap;html=1;fillColor=#d5e8d4;strokeColor=#82b366;" vertex="1" parent="NqYlhsiGbe7XxsHwuH4E-1">
          <mxGeometry x="294" y="500" width="120" height="40" as="geometry" />
        </mxCell>
        <mxCell id="NqYlhsiGbe7XxsHwuH4E-29" value="MySql&lt;br&gt;8核16G" style="shape=cylinder3;whiteSpace=wrap;html=1;boundedLbl=1;backgroundOutline=1;size=15;fillColor=#008a00;strokeColor=#005700;fontColor=#ffffff;" vertex="1" parent="NqYlhsiGbe7XxsHwuH4E-1">
          <mxGeometry x="300" y="660" width="90" height="110" as="geometry" />
        </mxCell>
        <mxCell id="NqYlhsiGbe7XxsHwuH4E-30" value="MySql&lt;br&gt;8核16G" style="shape=cylinder3;whiteSpace=wrap;html=1;boundedLbl=1;backgroundOutline=1;size=15;fillColor=#008a00;strokeColor=#005700;fontColor=#ffffff;" vertex="1" parent="NqYlhsiGbe7XxsHwuH4E-1">
          <mxGeometry x="490" y="660" width="90" height="110" as="geometry" />
        </mxCell>
        <mxCell id="NqYlhsiGbe7XxsHwuH4E-34" value="&lt;h1&gt;并发量&lt;/h1&gt;&lt;div&gt;1、服务注册中心，每秒上千&lt;/div&gt;&lt;div&gt;2、业务微服务，每秒几百&lt;/div&gt;&lt;div&gt;3、网关系统，一台机器抗每秒几百请求&lt;/div&gt;&lt;div&gt;4、数据库，每秒一两千左右&lt;/div&gt;" style="text;html=1;strokeColor=none;fillColor=none;spacing=5;spacingTop=-20;whiteSpace=wrap;overflow=hidden;rounded=0;fontStyle=1" vertex="1" parent="NqYlhsiGbe7XxsHwuH4E-1">
          <mxGeometry x="45" y="30" width="190" height="120" as="geometry" />
        </mxCell>
      </root>
    </mxGraphModel>
  </diagram>
</mxfile>
